<svg width="215" height="29" viewBox="0 0 215 29" fill="none" xmlns="http://www.w3.org/2000/svg">
<path d="M22.2 26.8L13.16 13.64L21.8 1.2C22.28 0.519999 21.96 -1.90735e-06 21.16 -1.90735e-06H16.12C15.6 -1.90735e-06 15.24 0.199998 14.92 0.639999L6.8 12.2V1C6.8 0.359998 6.44 -1.90735e-06 5.8 -1.90735e-06H1.4C0.76 -1.90735e-06 0.4 0.359998 0.4 1V27C0.4 27.64 0.76 28 1.4 28H5.8C6.44 28 6.8 27.64 6.8 27V15.08L15.32 27.36C15.6 27.8 16 28 16.52 28H21.56C22.36 28 22.64 27.48 22.2 26.8ZM26.2391 5.6H30.2391C30.8791 5.6 31.2391 5.24 31.2391 4.6V1C31.2391 0.359998 30.8791 -1.90735e-06 30.2391 -1.90735e-06H26.2391C25.5991 -1.90735e-06 25.2391 0.359998 25.2391 1V4.6C25.2391 5.24 25.5991 5.6 26.2391 5.6ZM26.2391 28H30.2391C30.8791 28 31.2391 27.64 31.2391 27V9C31.2391 8.36 30.8791 8 30.2391 8H26.2391C25.5991 8 25.2391 8.36 25.2391 9V27C25.2391 27.64 25.5991 28 26.2391 28ZM45.4297 8H43.2297V2.6C43.2297 1.96 42.8697 1.6 42.2297 1.6H38.2297C37.5897 1.6 37.2297 1.96 37.2297 2.6V8H35.0297C34.3897 8 34.0297 8.36 34.0297 9V12.76C34.0297 13.4 34.3897 13.76 35.0297 13.76H37.2297V27C37.2297 27.64 37.5897 28 38.2297 28H42.2297C42.8697 28 43.2297 27.64 43.2297 27V13.76H45.4297C46.0697 13.76 46.4297 13.4 46.4297 12.76V9C46.4297 8.36 46.0697 8 45.4297 8ZM67.4328 20.4H63.0328C62.4728 20.4 62.1528 20.64 61.8328 21.12C61.1128 22.08 59.8728 22.64 58.4328 22.64C55.8328 22.64 53.8328 20.76 53.8328 18C53.8328 15.24 55.8328 13.36 58.4328 13.36C59.8728 13.36 61.1128 13.92 61.8328 14.92C62.1528 15.36 62.5128 15.6 63.0328 15.6H67.4328C68.1128 15.6 68.5128 15.16 68.2728 14.48C67.0328 10.32 63.1128 7.44 58.4328 7.44C52.3528 7.44 47.8328 12.04 47.8328 18C47.8328 23.96 52.3528 28.56 58.4328 28.56C63.1128 28.56 67.0328 25.68 68.2728 21.52C68.5128 20.84 68.1128 20.4 67.4328 20.4ZM82.5719 7.44C80.0119 7.44 78.2919 8.44 77.3719 9.84V1C77.3719 0.359998 77.0119 -1.90735e-06 76.3719 -1.90735e-06H72.3719C71.7319 -1.90735e-06 71.3719 0.359998 71.3719 1V27C71.3719 27.64 71.7319 28 72.3719 28H76.3719C77.0119 28 77.3719 27.64 77.3719 27V16.32C77.3719 13.96 78.4919 12.96 80.2919 12.96C81.8119 12.96 82.9719 13.84 82.9719 15.84V27C82.9719 27.64 83.3319 28 83.9719 28H87.9719C88.6119 28 88.9719 27.64 88.9719 27V15.32C88.9719 10.32 86.2919 7.44 82.5719 7.44ZM102.576 7.44C96.2563 7.44 91.8563 12.04 91.8563 18C91.8563 23.96 96.0963 28.56 102.736 28.56C106.816 28.56 110.096 26.76 111.656 23.28C111.976 22.64 111.576 22.16 110.856 22.16L107.016 22.2C106.496 22.2 106.176 22.4 105.776 22.72C105.056 23.32 103.936 23.72 102.816 23.72C100.696 23.72 98.8563 22.8 98.1363 20.4H106.616H111.496C112.096 20.4 112.496 20.12 112.576 19.48C112.616 19 112.656 18.52 112.656 18C112.656 11.96 108.416 7.44 102.576 7.44ZM98.0963 15.84C98.6963 13.88 100.256 12.76 102.536 12.76C104.296 12.76 106.056 13.6 106.656 15.84H98.0963ZM127.181 7.44C124.621 7.44 122.901 8.44 121.981 9.84V9C121.981 8.36 121.621 8 120.981 8H116.981C116.341 8 115.981 8.36 115.981 9V27C115.981 27.64 116.341 28 116.981 28H120.981C121.621 28 121.981 27.64 121.981 27V16.32C121.981 13.96 123.101 12.96 124.901 12.96C126.421 12.96 127.581 13.84 127.581 15.84V27C127.581 27.64 127.941 28 128.581 28H132.581C133.221 28 133.581 27.64 133.581 27V15.32C133.581 10.32 130.901 7.44 127.181 7.44Z" fill="#FFC727"/>
<path d="M167.026 11.24C167.666 10.24 168.066 9.04 168.066 7.8C168.066 3.28 164.386 -1.90735e-06 159.466 -1.90735e-06H154.066H148.666C148.026 -1.90735e-06 147.666 0.359998 147.666 1V27C147.666 27.64 148.026 28 148.666 28H149.266H162.826C167.906 28 171.666 24.24 171.666 19.2C171.666 15.68 169.826 12.8 167.026 11.24ZM159.466 6C160.786 6 161.666 6.88 161.666 8.2C161.666 8.84 161.386 9.52 160.866 10H154.066V6H159.466ZM162.026 22H154.066V15.6H162.066C164.346 15.6 165.266 17 165.266 18.8C165.266 20.6 164.346 22 162.026 22ZM184.448 28.56C190.328 28.56 195.048 23.96 195.048 18C195.048 12.04 190.328 7.44 184.448 7.44C178.568 7.44 173.848 12.04 173.848 18C173.848 23.96 178.568 28.56 184.448 28.56ZM184.448 22.72C181.848 22.72 179.848 20.84 179.848 18C179.848 15.16 181.848 13.28 184.448 13.28C187.048 13.28 189.048 15.16 189.048 18C189.048 20.84 187.048 22.72 184.448 22.72ZM213.667 26.8L207.987 17.84L213.427 9.2C213.867 8.52 213.547 8 212.747 8H208.587C208.067 8 207.667 8.24 207.387 8.68L204.827 12.76L202.267 8.68C201.987 8.24 201.587 8 201.067 8H196.907C196.107 8 195.787 8.52 196.227 9.2L201.627 17.84L195.987 26.8C195.547 27.48 195.867 28 196.667 28H200.827C201.347 28 201.747 27.76 202.027 27.32L204.827 22.88L207.627 27.32C207.907 27.76 208.307 28 208.827 28H212.987C213.787 28 214.107 27.48 213.667 26.8Z" fill="black" fill-opacity="0.8"/>
</svg>
