<svg width="1920" height="132" viewBox="0 0 1920 132" fill="none" xmlns="http://www.w3.org/2000/svg">
<g filter="url(#filter0_d_251_1012)">
<rect width="1920" height="100" fill="white"/>
</g>
<path d="M499.448 46.848L495.24 58H493.56L489.352 46.848H490.904L494.408 56.464L497.912 46.848H499.448ZM502.501 46.848V58H501.045V46.848H502.501ZM516.294 46.928V58H514.838V49.744L511.158 58H510.134L506.438 49.728V58H504.982V46.928H506.55L510.646 56.08L514.742 46.928H516.294ZM529.109 51.52V52.752H522.725V51.52H529.109ZM538.049 49.184C537.815 48 537.084 47.408 535.857 47.408C534.908 47.408 534.199 47.776 533.729 48.512C533.26 49.2373 533.031 50.4373 533.041 52.112C533.287 51.5573 533.692 51.1253 534.257 50.816C534.833 50.496 535.473 50.336 536.177 50.336C537.276 50.336 538.151 50.6773 538.801 51.36C539.463 52.0427 539.793 52.9867 539.793 54.192C539.793 54.9173 539.649 55.568 539.361 56.144C539.084 56.72 538.657 57.1787 538.081 57.52C537.516 57.8613 536.828 58.032 536.017 58.032C534.919 58.032 534.06 57.7867 533.441 57.296C532.823 56.8053 532.391 56.128 532.145 55.264C531.9 54.4 531.777 53.3333 531.777 52.064C531.777 48.1493 533.143 46.192 535.873 46.192C536.919 46.192 537.74 46.4747 538.337 47.04C538.935 47.6053 539.287 48.32 539.393 49.184H538.049ZM535.873 51.568C535.415 51.568 534.983 51.664 534.577 51.856C534.172 52.0373 533.841 52.32 533.585 52.704C533.34 53.0773 533.217 53.536 533.217 54.08C533.217 54.8907 533.452 55.552 533.921 56.064C534.391 56.5653 535.063 56.816 535.937 56.816C536.684 56.816 537.276 56.5867 537.713 56.128C538.161 55.6587 538.385 55.0293 538.385 54.24C538.385 53.408 538.172 52.7573 537.745 52.288C537.319 51.808 536.695 51.568 535.873 51.568ZM549.134 47.696H543.518V51.344C543.763 51.0027 544.126 50.7253 544.606 50.512C545.086 50.288 545.603 50.176 546.158 50.176C547.043 50.176 547.763 50.3627 548.318 50.736C548.872 51.0987 549.267 51.5733 549.502 52.16C549.747 52.736 549.87 53.3493 549.87 54C549.87 54.768 549.726 55.456 549.438 56.064C549.15 56.672 548.707 57.152 548.11 57.504C547.523 57.856 546.792 58.032 545.918 58.032C544.798 58.032 543.891 57.744 543.198 57.168C542.504 56.592 542.083 55.824 541.934 54.864H543.358C543.496 55.472 543.79 55.9467 544.238 56.288C544.686 56.6293 545.251 56.8 545.934 56.8C546.776 56.8 547.411 56.5493 547.838 56.048C548.264 55.536 548.478 54.864 548.478 54.032C548.478 53.2 548.264 52.56 547.838 52.112C547.411 51.6533 546.782 51.424 545.95 51.424C545.384 51.424 544.888 51.5627 544.462 51.84C544.046 52.1067 543.742 52.4747 543.55 52.944H542.174V46.416H549.134V47.696ZM551.421 47.76V46.432H554.429V58H552.957V47.76H551.421ZM558.674 55.984L556.882 60.288H555.905L557.074 55.984H558.674ZM568.143 58.112C567.407 58.112 566.746 57.984 566.159 57.728C565.583 57.4613 565.13 57.0987 564.799 56.64C564.468 56.1707 564.298 55.632 564.287 55.024H565.839C565.892 55.5467 566.106 55.9893 566.479 56.352C566.863 56.704 567.418 56.88 568.143 56.88C568.836 56.88 569.38 56.7093 569.775 56.368C570.18 56.016 570.383 55.568 570.383 55.024C570.383 54.5973 570.266 54.2507 570.031 53.984C569.796 53.7173 569.503 53.5147 569.151 53.376C568.799 53.2373 568.324 53.088 567.727 52.928C566.991 52.736 566.399 52.544 565.951 52.352C565.514 52.16 565.135 51.8613 564.815 51.456C564.506 51.04 564.351 50.4853 564.351 49.792C564.351 49.184 564.506 48.6453 564.815 48.176C565.124 47.7067 565.556 47.344 566.111 47.088C566.676 46.832 567.322 46.704 568.047 46.704C569.092 46.704 569.946 46.9653 570.607 47.488C571.279 48.0107 571.658 48.704 571.743 49.568H570.143C570.09 49.1413 569.866 48.768 569.471 48.448C569.076 48.1173 568.554 47.952 567.903 47.952C567.295 47.952 566.799 48.112 566.415 48.432C566.031 48.7413 565.839 49.1787 565.839 49.744C565.839 50.1493 565.951 50.48 566.175 50.736C566.41 50.992 566.692 51.1893 567.023 51.328C567.364 51.456 567.839 51.6053 568.447 51.776C569.183 51.9787 569.775 52.1813 570.223 52.384C570.671 52.576 571.055 52.88 571.375 53.296C571.695 53.7013 571.855 54.256 571.855 54.96C571.855 55.504 571.711 56.016 571.423 56.496C571.135 56.976 570.708 57.3653 570.143 57.664C569.578 57.9627 568.911 58.112 568.143 58.112ZM573.454 53.584C573.454 52.688 573.635 51.904 573.998 51.232C574.36 50.5493 574.856 50.0213 575.486 49.648C576.126 49.2747 576.835 49.088 577.614 49.088C578.382 49.088 579.048 49.2533 579.614 49.584C580.179 49.9147 580.6 50.3307 580.878 50.832V49.232H582.35V58H580.878V56.368C580.59 56.88 580.158 57.3067 579.582 57.648C579.016 57.9787 578.355 58.144 577.598 58.144C576.819 58.144 576.115 57.952 575.486 57.568C574.856 57.184 574.36 56.6453 573.998 55.952C573.635 55.2587 573.454 54.4693 573.454 53.584ZM580.878 53.6C580.878 52.9387 580.744 52.3627 580.478 51.872C580.211 51.3813 579.848 51.008 579.39 50.752C578.942 50.4853 578.446 50.352 577.902 50.352C577.358 50.352 576.862 50.48 576.414 50.736C575.966 50.992 575.608 51.3653 575.342 51.856C575.075 52.3467 574.942 52.9227 574.942 53.584C574.942 54.256 575.075 54.8427 575.342 55.344C575.608 55.8347 575.966 56.2133 576.414 56.48C576.862 56.736 577.358 56.864 577.902 56.864C578.446 56.864 578.942 56.736 579.39 56.48C579.848 56.2133 580.211 55.8347 580.478 55.344C580.744 54.8427 580.878 54.2613 580.878 53.6ZM585.562 47.808C585.285 47.808 585.05 47.712 584.858 47.52C584.666 47.328 584.57 47.0933 584.57 46.816C584.57 46.5387 584.666 46.304 584.858 46.112C585.05 45.92 585.285 45.824 585.562 45.824C585.829 45.824 586.053 45.92 586.234 46.112C586.426 46.304 586.522 46.5387 586.522 46.816C586.522 47.0933 586.426 47.328 586.234 47.52C586.053 47.712 585.829 47.808 585.562 47.808ZM586.266 49.232V58H584.81V49.232H586.266ZM590.204 46.16V58H588.748V46.16H590.204ZM592.141 53.584C592.141 52.688 592.322 51.904 592.685 51.232C593.048 50.5493 593.544 50.0213 594.173 49.648C594.813 49.2747 595.522 49.088 596.301 49.088C597.069 49.088 597.736 49.2533 598.301 49.584C598.866 49.9147 599.288 50.3307 599.565 50.832V49.232H601.037V58H599.565V56.368C599.277 56.88 598.845 57.3067 598.269 57.648C597.704 57.9787 597.042 58.144 596.285 58.144C595.506 58.144 594.802 57.952 594.173 57.568C593.544 57.184 593.048 56.6453 592.685 55.952C592.322 55.2587 592.141 54.4693 592.141 53.584ZM599.565 53.6C599.565 52.9387 599.432 52.3627 599.165 51.872C598.898 51.3813 598.536 51.008 598.077 50.752C597.629 50.4853 597.133 50.352 596.589 50.352C596.045 50.352 595.549 50.48 595.101 50.736C594.653 50.992 594.296 51.3653 594.029 51.856C593.762 52.3467 593.629 52.9227 593.629 53.584C593.629 54.256 593.762 54.8427 594.029 55.344C594.296 55.8347 594.653 56.2133 595.101 56.48C595.549 56.736 596.045 56.864 596.589 56.864C597.133 56.864 597.629 56.736 598.077 56.48C598.536 56.2133 598.898 55.8347 599.165 55.344C599.432 54.8427 599.565 54.2613 599.565 53.6ZM606.602 58.144C605.93 58.144 605.327 58.032 604.794 57.808C604.26 57.5733 603.839 57.2533 603.53 56.848C603.22 56.432 603.05 55.9573 603.018 55.424H604.522C604.564 55.8613 604.767 56.2187 605.13 56.496C605.503 56.7733 605.988 56.912 606.586 56.912C607.14 56.912 607.578 56.7893 607.898 56.544C608.218 56.2987 608.378 55.9893 608.378 55.616C608.378 55.232 608.207 54.9493 607.866 54.768C607.524 54.576 606.996 54.3893 606.282 54.208C605.631 54.0373 605.098 53.8667 604.682 53.696C604.276 53.5147 603.924 53.2533 603.626 52.912C603.338 52.56 603.194 52.1013 603.194 51.536C603.194 51.088 603.327 50.6773 603.594 50.304C603.86 49.9307 604.239 49.6373 604.73 49.424C605.22 49.2 605.78 49.088 606.41 49.088C607.38 49.088 608.164 49.3333 608.762 49.824C609.359 50.3147 609.679 50.9867 609.722 51.84H608.266C608.234 51.3813 608.047 51.0133 607.706 50.736C607.375 50.4587 606.927 50.32 606.362 50.32C605.839 50.32 605.423 50.432 605.114 50.656C604.804 50.88 604.65 51.1733 604.65 51.536C604.65 51.824 604.74 52.064 604.922 52.256C605.114 52.4373 605.348 52.5867 605.626 52.704C605.914 52.8107 606.308 52.9333 606.81 53.072C607.439 53.2427 607.951 53.4133 608.346 53.584C608.74 53.744 609.076 53.9893 609.354 54.32C609.642 54.6507 609.791 55.0827 609.802 55.616C609.802 56.096 609.668 56.528 609.402 56.912C609.135 57.296 608.756 57.6 608.266 57.824C607.786 58.0373 607.231 58.144 606.602 58.144ZM616.209 49.072C616.87 49.072 617.468 49.216 618.001 49.504C618.534 49.7813 618.95 50.2027 619.249 50.768C619.558 51.3333 619.713 52.0213 619.713 52.832V58H618.273V53.04C618.273 52.1653 618.054 51.4987 617.617 51.04C617.18 50.5707 616.582 50.336 615.825 50.336C615.057 50.336 614.444 50.576 613.985 51.056C613.537 51.536 613.313 52.2347 613.313 53.152V58H611.857V46.16H613.313V50.48C613.601 50.032 613.996 49.6853 614.497 49.44C615.009 49.1947 615.58 49.072 616.209 49.072ZM623.547 50.656C623.803 50.1547 624.166 49.7653 624.635 49.488C625.115 49.2107 625.697 49.072 626.379 49.072V50.576H625.995C624.363 50.576 623.547 51.4613 623.547 53.232V58H622.091V49.232H623.547V50.656ZM636.06 53.28C636.06 53.5573 636.044 53.8507 636.012 54.16H629.004C629.057 55.024 629.351 55.7013 629.884 56.192C630.428 56.672 631.084 56.912 631.852 56.912C632.481 56.912 633.004 56.768 633.42 56.48C633.847 56.1813 634.145 55.7867 634.316 55.296H635.884C635.649 56.1387 635.18 56.8267 634.476 57.36C633.772 57.8827 632.897 58.144 631.852 58.144C631.02 58.144 630.273 57.9573 629.612 57.584C628.961 57.2107 628.449 56.6827 628.076 56C627.703 55.3067 627.516 54.5067 627.516 53.6C627.516 52.6933 627.697 51.8987 628.06 51.216C628.423 50.5333 628.929 50.0107 629.58 49.648C630.241 49.2747 630.999 49.088 631.852 49.088C632.684 49.088 633.42 49.2693 634.06 49.632C634.7 49.9947 635.191 50.496 635.532 51.136C635.884 51.7653 636.06 52.48 636.06 53.28ZM634.556 52.976C634.556 52.4213 634.433 51.9467 634.188 51.552C633.943 51.1467 633.607 50.8427 633.18 50.64C632.764 50.4267 632.3 50.32 631.788 50.32C631.052 50.32 630.423 50.5547 629.9 51.024C629.388 51.4933 629.095 52.144 629.02 52.976H634.556ZM645.982 53.28C645.982 53.5573 645.966 53.8507 645.934 54.16H638.926C638.979 55.024 639.273 55.7013 639.806 56.192C640.35 56.672 641.006 56.912 641.774 56.912C642.403 56.912 642.926 56.768 643.342 56.48C643.769 56.1813 644.067 55.7867 644.238 55.296H645.806C645.571 56.1387 645.102 56.8267 644.398 57.36C643.694 57.8827 642.819 58.144 641.774 58.144C640.942 58.144 640.195 57.9573 639.534 57.584C638.883 57.2107 638.371 56.6827 637.998 56C637.625 55.3067 637.438 54.5067 637.438 53.6C637.438 52.6933 637.619 51.8987 637.982 51.216C638.345 50.5333 638.851 50.0107 639.502 49.648C640.163 49.2747 640.921 49.088 641.774 49.088C642.606 49.088 643.342 49.2693 643.982 49.632C644.622 49.9947 645.113 50.496 645.454 51.136C645.806 51.7653 645.982 52.48 645.982 53.28ZM644.478 52.976C644.478 52.4213 644.355 51.9467 644.11 51.552C643.865 51.1467 643.529 50.8427 643.102 50.64C642.686 50.4267 642.222 50.32 641.71 50.32C640.974 50.32 640.345 50.5547 639.822 51.024C639.31 51.4933 639.017 52.144 638.942 52.976H644.478ZM661.386 46.848L657.178 58H655.498L651.29 46.848H652.842L656.346 56.464L659.85 46.848H661.386ZM663.734 47.808C663.457 47.808 663.222 47.712 663.03 47.52C662.838 47.328 662.742 47.0933 662.742 46.816C662.742 46.5387 662.838 46.304 663.03 46.112C663.222 45.92 663.457 45.824 663.734 45.824C664.001 45.824 664.225 45.92 664.406 46.112C664.598 46.304 664.694 46.5387 664.694 46.816C664.694 47.0933 664.598 47.328 664.406 47.52C664.225 47.712 664.001 47.808 663.734 47.808ZM664.438 49.232V58H662.982V49.232H664.438ZM671.272 49.072C671.933 49.072 672.53 49.216 673.064 49.504C673.597 49.7813 674.013 50.2027 674.312 50.768C674.621 51.3333 674.776 52.0213 674.776 52.832V58H673.336V53.04C673.336 52.1653 673.117 51.4987 672.68 51.04C672.242 50.5707 671.645 50.336 670.888 50.336C670.12 50.336 669.506 50.576 669.048 51.056C668.6 51.536 668.376 52.2347 668.376 53.152V58H666.92V46.16H668.376V50.48C668.664 50.032 669.058 49.6853 669.56 49.44C670.072 49.1947 670.642 49.072 671.272 49.072ZM676.61 53.584C676.61 52.688 676.791 51.904 677.154 51.232C677.517 50.5493 678.013 50.0213 678.642 49.648C679.282 49.2747 679.991 49.088 680.77 49.088C681.538 49.088 682.205 49.2533 682.77 49.584C683.335 49.9147 683.757 50.3307 684.034 50.832V49.232H685.506V58H684.034V56.368C683.746 56.88 683.314 57.3067 682.738 57.648C682.173 57.9787 681.511 58.144 680.754 58.144C679.975 58.144 679.271 57.952 678.642 57.568C678.013 57.184 677.517 56.6453 677.154 55.952C676.791 55.2587 676.61 54.4693 676.61 53.584ZM684.034 53.6C684.034 52.9387 683.901 52.3627 683.634 51.872C683.367 51.3813 683.005 51.008 682.546 50.752C682.098 50.4853 681.602 50.352 681.058 50.352C680.514 50.352 680.018 50.48 679.57 50.736C679.122 50.992 678.765 51.3653 678.498 51.856C678.231 52.3467 678.098 52.9227 678.098 53.584C678.098 54.256 678.231 54.8427 678.498 55.344C678.765 55.8347 679.122 56.2133 679.57 56.48C680.018 56.736 680.514 56.864 681.058 56.864C681.602 56.864 682.098 56.736 682.546 56.48C683.005 56.2133 683.367 55.8347 683.634 55.344C683.901 54.8427 684.034 54.2613 684.034 53.6ZM689.422 50.656C689.678 50.1547 690.041 49.7653 690.51 49.488C690.99 49.2107 691.572 49.072 692.254 49.072V50.576H691.87C690.238 50.576 689.422 51.4613 689.422 53.232V58H687.966V49.232H689.422V50.656ZM695.439 55.984L693.647 60.288H692.671L693.839 55.984H695.439ZM706.957 52.256C707.362 52.32 707.73 52.4853 708.061 52.752C708.402 53.0187 708.669 53.3493 708.861 53.744C709.063 54.1387 709.165 54.56 709.165 55.008C709.165 55.5733 709.021 56.0853 708.733 56.544C708.445 56.992 708.023 57.3493 707.469 57.616C706.925 57.872 706.279 58 705.533 58H701.373V46.848H705.373C706.13 46.848 706.775 46.976 707.309 47.232C707.842 47.4773 708.242 47.8133 708.509 48.24C708.775 48.6667 708.909 49.1467 708.909 49.68C708.909 50.3413 708.727 50.8907 708.365 51.328C708.013 51.7547 707.543 52.064 706.957 52.256ZM702.829 51.664H705.277C705.959 51.664 706.487 51.504 706.861 51.184C707.234 50.864 707.421 50.4213 707.421 49.856C707.421 49.2907 707.234 48.848 706.861 48.528C706.487 48.208 705.949 48.048 705.245 48.048H702.829V51.664ZM705.405 56.8C706.13 56.8 706.695 56.6293 707.101 56.288C707.506 55.9467 707.709 55.472 707.709 54.864C707.709 54.2453 707.495 53.76 707.069 53.408C706.642 53.0453 706.071 52.864 705.357 52.864H702.829V56.8H705.405ZM715.537 49.072C716.198 49.072 716.796 49.216 717.329 49.504C717.862 49.7813 718.278 50.2027 718.577 50.768C718.886 51.3333 719.041 52.0213 719.041 52.832V58H717.601V53.04C717.601 52.1653 717.382 51.4987 716.945 51.04C716.508 50.5707 715.91 50.336 715.153 50.336C714.385 50.336 713.772 50.576 713.313 51.056C712.865 51.536 712.641 52.2347 712.641 53.152V58H711.185V46.16H712.641V50.48C712.929 50.032 713.324 49.6853 713.825 49.44C714.337 49.1947 714.908 49.072 715.537 49.072ZM729.196 49.232V58H727.74V56.704C727.462 57.152 727.073 57.504 726.572 57.76C726.081 58.0053 725.537 58.128 724.94 58.128C724.257 58.128 723.644 57.9893 723.1 57.712C722.556 57.424 722.124 56.9973 721.804 56.432C721.494 55.8667 721.34 55.1787 721.34 54.368V49.232H722.78V54.176C722.78 55.04 722.998 55.7067 723.436 56.176C723.873 56.6347 724.47 56.864 725.228 56.864C726.006 56.864 726.62 56.624 727.068 56.144C727.516 55.664 727.74 54.9653 727.74 54.048V49.232H729.196ZM733.11 50.864C733.409 50.3413 733.846 49.9147 734.422 49.584C734.998 49.2533 735.654 49.088 736.39 49.088C737.179 49.088 737.889 49.2747 738.518 49.648C739.147 50.0213 739.643 50.5493 740.006 51.232C740.369 51.904 740.55 52.688 740.55 53.584C740.55 54.4693 740.369 55.2587 740.006 55.952C739.643 56.6453 739.142 57.184 738.502 57.568C737.873 57.952 737.169 58.144 736.39 58.144C735.633 58.144 734.966 57.9787 734.39 57.648C733.825 57.3173 733.398 56.896 733.11 56.384V58H731.654V46.16H733.11V50.864ZM739.062 53.584C739.062 52.9227 738.929 52.3467 738.662 51.856C738.395 51.3653 738.033 50.992 737.574 50.736C737.126 50.48 736.63 50.352 736.086 50.352C735.553 50.352 735.057 50.4853 734.598 50.752C734.15 51.008 733.787 51.3867 733.51 51.888C733.243 52.3787 733.11 52.9493 733.11 53.6C733.11 54.2613 733.243 54.8427 733.51 55.344C733.787 55.8347 734.15 56.2133 734.598 56.48C735.057 56.736 735.553 56.864 736.086 56.864C736.63 56.864 737.126 56.736 737.574 56.48C738.033 56.2133 738.395 55.8347 738.662 55.344C738.929 54.8427 739.062 54.256 739.062 53.584ZM741.922 53.584C741.922 52.688 742.104 51.904 742.466 51.232C742.829 50.5493 743.325 50.0213 743.954 49.648C744.594 49.2747 745.304 49.088 746.082 49.088C746.85 49.088 747.517 49.2533 748.082 49.584C748.648 49.9147 749.069 50.3307 749.346 50.832V49.232H750.818V58H749.346V56.368C749.058 56.88 748.626 57.3067 748.05 57.648C747.485 57.9787 746.824 58.144 746.066 58.144C745.288 58.144 744.584 57.952 743.954 57.568C743.325 57.184 742.829 56.6453 742.466 55.952C742.104 55.2587 741.922 54.4693 741.922 53.584ZM749.346 53.6C749.346 52.9387 749.213 52.3627 748.946 51.872C748.68 51.3813 748.317 51.008 747.858 50.752C747.41 50.4853 746.914 50.352 746.37 50.352C745.826 50.352 745.33 50.48 744.882 50.736C744.434 50.992 744.077 51.3653 743.81 51.856C743.544 52.3467 743.41 52.9227 743.41 53.584C743.41 54.256 743.544 54.8427 743.81 55.344C744.077 55.8347 744.434 56.2133 744.882 56.48C745.33 56.736 745.826 56.864 746.37 56.864C746.914 56.864 747.41 56.736 747.858 56.48C748.317 56.2133 748.68 55.8347 748.946 55.344C749.213 54.8427 749.346 54.2613 749.346 53.6ZM757.551 49.072C758.618 49.072 759.482 49.3973 760.143 50.048C760.804 50.688 761.135 51.616 761.135 52.832V58H759.695V53.04C759.695 52.1653 759.476 51.4987 759.039 51.04C758.602 50.5707 758.004 50.336 757.247 50.336C756.479 50.336 755.866 50.576 755.407 51.056C754.959 51.536 754.735 52.2347 754.735 53.152V58H753.279V49.232H754.735V50.48C755.023 50.032 755.412 49.6853 755.903 49.44C756.404 49.1947 756.954 49.072 757.551 49.072ZM771.513 53.28C771.513 53.5573 771.497 53.8507 771.465 54.16H764.457C764.511 55.024 764.804 55.7013 765.337 56.192C765.881 56.672 766.537 56.912 767.305 56.912C767.935 56.912 768.457 56.768 768.873 56.48C769.3 56.1813 769.599 55.7867 769.769 55.296H771.337C771.103 56.1387 770.633 56.8267 769.929 57.36C769.225 57.8827 768.351 58.144 767.305 58.144C766.473 58.144 765.727 57.9573 765.065 57.584C764.415 57.2107 763.903 56.6827 763.529 56C763.156 55.3067 762.969 54.5067 762.969 53.6C762.969 52.6933 763.151 51.8987 763.513 51.216C763.876 50.5333 764.383 50.0107 765.033 49.648C765.695 49.2747 766.452 49.088 767.305 49.088C768.137 49.088 768.873 49.2693 769.513 49.632C770.153 49.9947 770.644 50.496 770.985 51.136C771.337 51.7653 771.513 52.48 771.513 53.28ZM770.009 52.976C770.009 52.4213 769.887 51.9467 769.641 51.552C769.396 51.1467 769.06 50.8427 768.633 50.64C768.217 50.4267 767.753 50.32 767.241 50.32C766.505 50.32 765.876 50.5547 765.353 51.024C764.841 51.4933 764.548 52.144 764.473 52.976H770.009ZM776.539 58.144C775.867 58.144 775.264 58.032 774.731 57.808C774.198 57.5733 773.776 57.2533 773.467 56.848C773.158 56.432 772.987 55.9573 772.955 55.424H774.459C774.502 55.8613 774.704 56.2187 775.067 56.496C775.44 56.7733 775.926 56.912 776.523 56.912C777.078 56.912 777.515 56.7893 777.835 56.544C778.155 56.2987 778.315 55.9893 778.315 55.616C778.315 55.232 778.144 54.9493 777.803 54.768C777.462 54.576 776.934 54.3893 776.219 54.208C775.568 54.0373 775.035 53.8667 774.619 53.696C774.214 53.5147 773.862 53.2533 773.563 52.912C773.275 52.56 773.131 52.1013 773.131 51.536C773.131 51.088 773.264 50.6773 773.531 50.304C773.798 49.9307 774.176 49.6373 774.667 49.424C775.158 49.2 775.718 49.088 776.347 49.088C777.318 49.088 778.102 49.3333 778.699 49.824C779.296 50.3147 779.616 50.9867 779.659 51.84H778.203C778.171 51.3813 777.984 51.0133 777.643 50.736C777.312 50.4587 776.864 50.32 776.299 50.32C775.776 50.32 775.36 50.432 775.051 50.656C774.742 50.88 774.587 51.1733 774.587 51.536C774.587 51.824 774.678 52.064 774.859 52.256C775.051 52.4373 775.286 52.5867 775.563 52.704C775.851 52.8107 776.246 52.9333 776.747 53.072C777.376 53.2427 777.888 53.4133 778.283 53.584C778.678 53.744 779.014 53.9893 779.291 54.32C779.579 54.6507 779.728 55.0827 779.739 55.616C779.739 56.096 779.606 56.528 779.339 56.912C779.072 57.296 778.694 57.6 778.203 57.824C777.723 58.0373 777.168 58.144 776.539 58.144ZM793.475 49.232L790.739 58H789.235L787.123 51.04L785.011 58H783.507L780.755 49.232H782.243L784.259 56.592L786.435 49.232H787.923L790.051 56.608L792.035 49.232H793.475ZM794.376 53.584C794.376 52.688 794.557 51.904 794.92 51.232C795.282 50.5493 795.778 50.0213 796.408 49.648C797.048 49.2747 797.757 49.088 798.536 49.088C799.304 49.088 799.97 49.2533 800.536 49.584C801.101 49.9147 801.522 50.3307 801.8 50.832V49.232H803.272V58H801.8V56.368C801.512 56.88 801.08 57.3067 800.504 57.648C799.938 57.9787 799.277 58.144 798.52 58.144C797.741 58.144 797.037 57.952 796.408 57.568C795.778 57.184 795.282 56.6453 794.92 55.952C794.557 55.2587 794.376 54.4693 794.376 53.584ZM801.8 53.6C801.8 52.9387 801.666 52.3627 801.4 51.872C801.133 51.3813 800.77 51.008 800.312 50.752C799.864 50.4853 799.368 50.352 798.824 50.352C798.28 50.352 797.784 50.48 797.336 50.736C796.888 50.992 796.53 51.3653 796.264 51.856C795.997 52.3467 795.864 52.9227 795.864 53.584C795.864 54.256 795.997 54.8427 796.264 55.344C796.53 55.8347 796.888 56.2133 797.336 56.48C797.784 56.736 798.28 56.864 798.824 56.864C799.368 56.864 799.864 56.736 800.312 56.48C800.77 56.2133 801.133 55.8347 801.4 55.344C801.666 54.8427 801.8 54.2613 801.8 53.6ZM807.188 50.656C807.444 50.1547 807.807 49.7653 808.276 49.488C808.756 49.2107 809.337 49.072 810.02 49.072V50.576H809.636C808.004 50.576 807.188 51.4613 807.188 53.232V58H805.732V49.232H807.188V50.656ZM813.205 55.984L811.413 60.288H810.437L811.605 55.984H813.205ZM824.194 58.112C823.16 58.112 822.216 57.872 821.362 57.392C820.509 56.9013 819.832 56.224 819.33 55.36C818.84 54.4853 818.594 53.504 818.594 52.416C818.594 51.328 818.84 50.352 819.33 49.488C819.832 48.6133 820.509 47.936 821.362 47.456C822.216 46.9653 823.16 46.72 824.194 46.72C825.24 46.72 826.189 46.9653 827.042 47.456C827.896 47.936 828.568 48.608 829.058 49.472C829.549 50.336 829.794 51.3173 829.794 52.416C829.794 53.5147 829.549 54.496 829.058 55.36C828.568 56.224 827.896 56.9013 827.042 57.392C826.189 57.872 825.24 58.112 824.194 58.112ZM824.194 56.848C824.973 56.848 825.672 56.6667 826.29 56.304C826.92 55.9413 827.41 55.424 827.762 54.752C828.125 54.08 828.306 53.3013 828.306 52.416C828.306 51.52 828.125 50.7413 827.762 50.08C827.41 49.408 826.925 48.8907 826.306 48.528C825.688 48.1653 824.984 47.984 824.194 47.984C823.405 47.984 822.701 48.1653 822.082 48.528C821.464 48.8907 820.973 49.408 820.61 50.08C820.258 50.7413 820.082 51.52 820.082 52.416C820.082 53.3013 820.258 54.08 820.61 54.752C820.973 55.424 821.464 55.9413 822.082 56.304C822.712 56.6667 823.416 56.848 824.194 56.848ZM831.172 53.584C831.172 52.688 831.354 51.904 831.716 51.232C832.079 50.5493 832.575 50.0213 833.204 49.648C833.844 49.2747 834.559 49.088 835.348 49.088C836.031 49.088 836.666 49.248 837.252 49.568C837.839 49.8773 838.287 50.288 838.596 50.8V46.16H840.068V58H838.596V56.352C838.308 56.8747 837.882 57.3067 837.316 57.648C836.751 57.9787 836.09 58.144 835.332 58.144C834.554 58.144 833.844 57.952 833.204 57.568C832.575 57.184 832.079 56.6453 831.716 55.952C831.354 55.2587 831.172 54.4693 831.172 53.584ZM838.596 53.6C838.596 52.9387 838.463 52.3627 838.196 51.872C837.93 51.3813 837.567 51.008 837.108 50.752C836.66 50.4853 836.164 50.352 835.62 50.352C835.076 50.352 834.58 50.48 834.132 50.736C833.684 50.992 833.327 51.3653 833.06 51.856C832.794 52.3467 832.66 52.9227 832.66 53.584C832.66 54.256 832.794 54.8427 833.06 55.344C833.327 55.8347 833.684 56.2133 834.132 56.48C834.58 56.736 835.076 56.864 835.62 56.864C836.164 56.864 836.66 56.736 837.108 56.48C837.567 56.2133 837.93 55.8347 838.196 55.344C838.463 54.8427 838.596 54.2613 838.596 53.6ZM842.993 58.096C842.716 58.096 842.481 58 842.289 57.808C842.097 57.616 842.001 57.3813 842.001 57.104C842.001 56.8267 842.097 56.592 842.289 56.4C842.481 56.208 842.716 56.112 842.993 56.112C843.26 56.112 843.484 56.208 843.665 56.4C843.857 56.592 843.953 56.8267 843.953 57.104C843.953 57.3813 843.857 57.616 843.665 57.808C843.484 58 843.26 58.096 842.993 58.096ZM846.352 58.096C846.075 58.096 845.84 58 845.648 57.808C845.456 57.616 845.36 57.3813 845.36 57.104C845.36 56.8267 845.456 56.592 845.648 56.4C845.84 56.208 846.075 56.112 846.352 56.112C846.619 56.112 846.843 56.208 847.024 56.4C847.216 56.592 847.312 56.8267 847.312 57.104C847.312 57.3813 847.216 57.616 847.024 57.808C846.843 58 846.619 58.096 846.352 58.096ZM849.712 58.096C849.434 58.096 849.2 58 849.008 57.808C848.816 57.616 848.72 57.3813 848.72 57.104C848.72 56.8267 848.816 56.592 849.008 56.4C849.2 56.208 849.434 56.112 849.712 56.112C849.978 56.112 850.202 56.208 850.384 56.4C850.576 56.592 850.672 56.8267 850.672 57.104C850.672 57.3813 850.576 57.616 850.384 57.808C850.202 58 849.978 58.096 849.712 58.096Z" fill="black" fill-opacity="0.5"/>
<path d="M876 49.7126L874.12 48L868 53.5627L861.88 48L860 49.7125L868 57L876 49.7126Z" fill="#FFC727"/>
<path d="M469 52C467.9 52 467 51.1 467 50C467 48.9 467.9 48 469 48C470.1 48 471 48.9 471 50C471 51.1 470.1 52 469 52ZM475 50.2C475 46.57 472.35 44 469 44C465.65 44 463 46.57 463 50.2C463 52.54 464.95 55.64 469 59.34C473.05 55.64 475 52.54 475 50.2ZM469 42C473.2 42 477 45.22 477 50.2C477 53.52 474.33 57.45 469 62C463.67 57.45 461 53.52 461 50.2C461 45.22 464.8 42 469 42Z" fill="black" fill-opacity="0.8"/>
<path d="M224.2 62.8L215.16 49.64L223.8 37.2C224.28 36.52 223.96 36 223.16 36H218.12C217.6 36 217.24 36.2 216.92 36.64L208.8 48.2V37C208.8 36.36 208.44 36 207.8 36H203.4C202.76 36 202.4 36.36 202.4 37V63C202.4 63.64 202.76 64 203.4 64H207.8C208.44 64 208.8 63.64 208.8 63V51.08L217.32 63.36C217.6 63.8 218 64 218.52 64H223.56C224.36 64 224.64 63.48 224.2 62.8ZM228.239 41.6H232.239C232.879 41.6 233.239 41.24 233.239 40.6V37C233.239 36.36 232.879 36 232.239 36H228.239C227.599 36 227.239 36.36 227.239 37V40.6C227.239 41.24 227.599 41.6 228.239 41.6ZM228.239 64H232.239C232.879 64 233.239 63.64 233.239 63V45C233.239 44.36 232.879 44 232.239 44H228.239C227.599 44 227.239 44.36 227.239 45V63C227.239 63.64 227.599 64 228.239 64ZM247.43 44H245.23V38.6C245.23 37.96 244.87 37.6 244.23 37.6H240.23C239.59 37.6 239.23 37.96 239.23 38.6V44H237.03C236.39 44 236.03 44.36 236.03 45V48.76C236.03 49.4 236.39 49.76 237.03 49.76H239.23V63C239.23 63.64 239.59 64 240.23 64H244.23C244.87 64 245.23 63.64 245.23 63V49.76H247.43C248.07 49.76 248.43 49.4 248.43 48.76V45C248.43 44.36 248.07 44 247.43 44ZM269.433 56.4H265.033C264.473 56.4 264.153 56.64 263.833 57.12C263.113 58.08 261.873 58.64 260.433 58.64C257.833 58.64 255.833 56.76 255.833 54C255.833 51.24 257.833 49.36 260.433 49.36C261.873 49.36 263.113 49.92 263.833 50.92C264.153 51.36 264.513 51.6 265.033 51.6H269.433C270.113 51.6 270.513 51.16 270.273 50.48C269.033 46.32 265.113 43.44 260.433 43.44C254.353 43.44 249.833 48.04 249.833 54C249.833 59.96 254.353 64.56 260.433 64.56C265.113 64.56 269.033 61.68 270.273 57.52C270.513 56.84 270.113 56.4 269.433 56.4ZM284.572 43.44C282.012 43.44 280.292 44.44 279.372 45.84V37C279.372 36.36 279.012 36 278.372 36H274.372C273.732 36 273.372 36.36 273.372 37V63C273.372 63.64 273.732 64 274.372 64H278.372C279.012 64 279.372 63.64 279.372 63V52.32C279.372 49.96 280.492 48.96 282.292 48.96C283.812 48.96 284.972 49.84 284.972 51.84V63C284.972 63.64 285.332 64 285.972 64H289.972C290.612 64 290.972 63.64 290.972 63V51.32C290.972 46.32 288.292 43.44 284.572 43.44ZM304.576 43.44C298.256 43.44 293.856 48.04 293.856 54C293.856 59.96 298.096 64.56 304.736 64.56C308.816 64.56 312.096 62.76 313.656 59.28C313.976 58.64 313.576 58.16 312.856 58.16L309.016 58.2C308.496 58.2 308.176 58.4 307.776 58.72C307.056 59.32 305.936 59.72 304.816 59.72C302.696 59.72 300.856 58.8 300.136 56.4H308.616H313.496C314.096 56.4 314.496 56.12 314.576 55.48C314.616 55 314.656 54.52 314.656 54C314.656 47.96 310.416 43.44 304.576 43.44ZM300.096 51.84C300.696 49.88 302.256 48.76 304.536 48.76C306.296 48.76 308.056 49.6 308.656 51.84H300.096ZM329.181 43.44C326.621 43.44 324.901 44.44 323.981 45.84V45C323.981 44.36 323.621 44 322.981 44H318.981C318.341 44 317.981 44.36 317.981 45V63C317.981 63.64 318.341 64 318.981 64H322.981C323.621 64 323.981 63.64 323.981 63V52.32C323.981 49.96 325.101 48.96 326.901 48.96C328.421 48.96 329.581 49.84 329.581 51.84V63C329.581 63.64 329.941 64 330.581 64H334.581C335.221 64 335.581 63.64 335.581 63V51.32C335.581 46.32 332.901 43.44 329.181 43.44Z" fill="#FFC727"/>
<path d="M369.026 47.24C369.666 46.24 370.066 45.04 370.066 43.8C370.066 39.28 366.386 36 361.466 36H356.066H350.666C350.026 36 349.666 36.36 349.666 37V63C349.666 63.64 350.026 64 350.666 64H351.266H364.826C369.906 64 373.666 60.24 373.666 55.2C373.666 51.68 371.826 48.8 369.026 47.24ZM361.466 42C362.786 42 363.666 42.88 363.666 44.2C363.666 44.84 363.386 45.52 362.866 46H356.066V42H361.466ZM364.026 58H356.066V51.6H364.066C366.346 51.6 367.266 53 367.266 54.8C367.266 56.6 366.346 58 364.026 58ZM386.448 64.56C392.328 64.56 397.048 59.96 397.048 54C397.048 48.04 392.328 43.44 386.448 43.44C380.568 43.44 375.848 48.04 375.848 54C375.848 59.96 380.568 64.56 386.448 64.56ZM386.448 58.72C383.848 58.72 381.848 56.84 381.848 54C381.848 51.16 383.848 49.28 386.448 49.28C389.048 49.28 391.048 51.16 391.048 54C391.048 56.84 389.048 58.72 386.448 58.72ZM415.667 62.8L409.987 53.84L415.427 45.2C415.867 44.52 415.547 44 414.747 44H410.587C410.067 44 409.667 44.24 409.387 44.68L406.827 48.76L404.267 44.68C403.987 44.24 403.587 44 403.067 44H398.907C398.107 44 397.787 44.52 398.227 45.2L403.627 53.84L397.987 62.8C397.547 63.48 397.867 64 398.667 64H402.827C403.347 64 403.747 63.76 404.027 63.32L406.827 58.88L409.627 63.32C409.907 63.76 410.307 64 410.827 64H414.987C415.787 64 416.107 63.48 415.667 62.8Z" fill="black" fill-opacity="0.8"/>
<path d="M1492 46C1493.1 46 1494 46.9 1494 48C1494 49.1 1493.1 50 1492 50C1490.9 50 1490 49.1 1490 48C1490 46.9 1490.9 46 1492 46ZM1492 55C1494.7 55 1497.8 56.29 1498 57V58H1486V57.01C1486.2 56.29 1489.3 55 1492 55ZM1492 44C1489.79 44 1488 45.79 1488 48C1488 50.21 1489.79 52 1492 52C1494.21 52 1496 50.21 1496 48C1496 45.79 1494.21 44 1492 44ZM1492 53C1489.33 53 1484 54.34 1484 57V60H1500V57C1500 54.34 1494.67 53 1492 53Z" fill="black" fill-opacity="0.8"/>
<path d="M1521.9 55.728H1517.25L1516.45 58H1514.54L1518.53 46.864H1520.64L1524.62 58H1522.7L1521.9 55.728ZM1521.39 54.24L1519.58 49.072L1517.76 54.24H1521.39ZM1525.75 53.584C1525.75 52.6773 1525.93 51.8827 1526.29 51.2C1526.67 50.5067 1527.18 49.9733 1527.83 49.6C1528.48 49.2267 1529.23 49.04 1530.07 49.04C1531.13 49.04 1532.01 49.296 1532.71 49.808C1533.41 50.3093 1533.89 51.0293 1534.13 51.968H1532.16C1532 51.5307 1531.75 51.1893 1531.4 50.944C1531.04 50.6987 1530.6 50.576 1530.07 50.576C1529.32 50.576 1528.72 50.8427 1528.28 51.376C1527.84 51.8987 1527.62 52.6347 1527.62 53.584C1527.62 54.5333 1527.84 55.2747 1528.28 55.808C1528.72 56.3413 1529.32 56.608 1530.07 56.608C1531.12 56.608 1531.82 56.144 1532.16 55.216H1534.13C1533.88 56.112 1533.4 56.8267 1532.69 57.36C1531.99 57.8827 1531.11 58.144 1530.07 58.144C1529.23 58.144 1528.48 57.9573 1527.83 57.584C1527.18 57.2 1526.67 56.6667 1526.29 55.984C1525.93 55.2907 1525.75 54.4907 1525.75 53.584ZM1535.34 53.584C1535.34 52.6773 1535.52 51.8827 1535.89 51.2C1536.26 50.5067 1536.77 49.9733 1537.42 49.6C1538.07 49.2267 1538.82 49.04 1539.66 49.04C1540.73 49.04 1541.61 49.296 1542.3 49.808C1543.01 50.3093 1543.48 51.0293 1543.73 51.968H1541.76C1541.6 51.5307 1541.34 51.1893 1540.99 50.944C1540.64 50.6987 1540.2 50.576 1539.66 50.576C1538.92 50.576 1538.32 50.8427 1537.87 51.376C1537.43 51.8987 1537.21 52.6347 1537.21 53.584C1537.21 54.5333 1537.43 55.2747 1537.87 55.808C1538.32 56.3413 1538.92 56.608 1539.66 56.608C1540.72 56.608 1541.42 56.144 1541.76 55.216H1543.73C1543.47 56.112 1542.99 56.8267 1542.29 57.36C1541.58 57.8827 1540.71 58.144 1539.66 58.144C1538.82 58.144 1538.07 57.9573 1537.42 57.584C1536.77 57.2 1536.26 56.6667 1535.89 55.984C1535.52 55.2907 1535.34 54.4907 1535.34 53.584ZM1549.37 58.144C1548.54 58.144 1547.78 57.9573 1547.11 57.584C1546.44 57.2 1545.91 56.6667 1545.53 55.984C1545.14 55.2907 1544.95 54.4907 1544.95 53.584C1544.95 52.688 1545.15 51.8933 1545.54 51.2C1545.94 50.5067 1546.48 49.9733 1547.16 49.6C1547.84 49.2267 1548.61 49.04 1549.45 49.04C1550.29 49.04 1551.05 49.2267 1551.74 49.6C1552.42 49.9733 1552.96 50.5067 1553.35 51.2C1553.75 51.8933 1553.94 52.688 1553.94 53.584C1553.94 54.48 1553.74 55.2747 1553.34 55.968C1552.93 56.6613 1552.38 57.2 1551.67 57.584C1550.98 57.9573 1550.21 58.144 1549.37 58.144ZM1549.37 56.56C1549.84 56.56 1550.27 56.448 1550.68 56.224C1551.1 56 1551.43 55.664 1551.69 55.216C1551.94 54.768 1552.07 54.224 1552.07 53.584C1552.07 52.944 1551.95 52.4053 1551.7 51.968C1551.46 51.52 1551.13 51.184 1550.73 50.96C1550.32 50.736 1549.89 50.624 1549.42 50.624C1548.95 50.624 1548.51 50.736 1548.1 50.96C1547.71 51.184 1547.39 51.52 1547.16 51.968C1546.93 52.4053 1546.81 52.944 1546.81 53.584C1546.81 54.5333 1547.05 55.2693 1547.53 55.792C1548.02 56.304 1548.63 56.56 1549.37 56.56ZM1563.73 49.184V58H1561.91V56.96C1561.62 57.3227 1561.24 57.6107 1560.77 57.824C1560.31 58.0267 1559.82 58.128 1559.3 58.128C1558.61 58.128 1557.98 57.984 1557.43 57.696C1556.88 57.408 1556.45 56.9813 1556.13 56.416C1555.82 55.8507 1555.67 55.168 1555.67 54.368V49.184H1557.47V54.096C1557.47 54.8853 1557.67 55.4933 1558.07 55.92C1558.46 56.336 1559 56.544 1559.68 56.544C1560.37 56.544 1560.9 56.336 1561.3 55.92C1561.7 55.4933 1561.91 54.8853 1561.91 54.096V49.184H1563.73ZM1570.59 49.04C1571.28 49.04 1571.9 49.184 1572.44 49.472C1573 49.76 1573.43 50.1867 1573.74 50.752C1574.05 51.3173 1574.2 52 1574.2 52.8V58H1572.39V53.072C1572.39 52.2827 1572.2 51.68 1571.8 51.264C1571.41 50.8373 1570.87 50.624 1570.19 50.624C1569.5 50.624 1568.96 50.8373 1568.55 51.264C1568.16 51.68 1567.96 52.2827 1567.96 53.072V58H1566.14V49.184H1567.96V50.192C1568.26 49.8293 1568.64 49.5467 1569.1 49.344C1569.57 49.1413 1570.06 49.04 1570.59 49.04ZM1578.66 50.672V55.552C1578.66 55.8827 1578.73 56.1227 1578.88 56.272C1579.04 56.4107 1579.31 56.48 1579.68 56.48H1580.8V58H1579.36C1578.54 58 1577.91 57.808 1577.47 57.424C1577.03 57.04 1576.82 56.416 1576.82 55.552V50.672H1575.78V49.184H1576.82V46.992H1578.66V49.184H1580.8V50.672H1578.66Z" fill="black" fill-opacity="0.8"/>
<path d="M1326.33 58L1322.02 53.024V58H1320.2V46.88H1322.02V51.952L1326.34 46.88H1328.63L1323.8 52.448L1328.71 58H1326.33ZM1331.25 48.016C1330.92 48.016 1330.65 47.904 1330.42 47.68C1330.2 47.456 1330.09 47.1787 1330.09 46.848C1330.09 46.5173 1330.2 46.24 1330.42 46.016C1330.65 45.792 1330.92 45.68 1331.25 45.68C1331.57 45.68 1331.85 45.792 1332.07 46.016C1332.29 46.24 1332.41 46.5173 1332.41 46.848C1332.41 47.1787 1332.29 47.456 1332.07 47.68C1331.85 47.904 1331.57 48.016 1331.25 48.016ZM1332.15 49.184V58H1330.33V49.184H1332.15ZM1336.67 50.672V55.552C1336.67 55.8827 1336.75 56.1227 1336.9 56.272C1337.06 56.4107 1337.32 56.48 1337.7 56.48H1338.82V58H1337.38C1336.55 58 1335.93 57.808 1335.49 57.424C1335.05 57.04 1334.83 56.416 1334.83 55.552V50.672H1333.79V49.184H1334.83V46.992H1336.67V49.184H1338.82V50.672H1336.67ZM1339.89 53.584C1339.89 52.6773 1340.07 51.8827 1340.43 51.2C1340.81 50.5067 1341.32 49.9733 1341.97 49.6C1342.62 49.2267 1343.37 49.04 1344.21 49.04C1345.28 49.04 1346.16 49.296 1346.85 49.808C1347.55 50.3093 1348.03 51.0293 1348.27 51.968H1346.3C1346.14 51.5307 1345.89 51.1893 1345.54 50.944C1345.18 50.6987 1344.74 50.576 1344.21 50.576C1343.46 50.576 1342.86 50.8427 1342.42 51.376C1341.98 51.8987 1341.76 52.6347 1341.76 53.584C1341.76 54.5333 1341.98 55.2747 1342.42 55.808C1342.86 56.3413 1343.46 56.608 1344.21 56.608C1345.26 56.608 1345.96 56.144 1346.3 55.216H1348.27C1348.02 56.112 1347.54 56.8267 1346.83 57.36C1346.13 57.8827 1345.25 58.144 1344.21 58.144C1343.37 58.144 1342.62 57.9573 1341.97 57.584C1341.32 57.2 1340.81 56.6667 1340.43 55.984C1340.07 55.2907 1339.89 54.4907 1339.89 53.584ZM1354.65 49.04C1355.32 49.04 1355.92 49.184 1356.44 49.472C1356.98 49.76 1357.39 50.1867 1357.69 50.752C1358 51.3173 1358.15 52 1358.15 52.8V58H1356.35V53.072C1356.35 52.2827 1356.15 51.68 1355.75 51.264C1355.36 50.8373 1354.82 50.624 1354.14 50.624C1353.46 50.624 1352.91 50.8373 1352.51 51.264C1352.11 51.68 1351.91 52.2827 1351.91 53.072V58H1350.09V46.16H1351.91V50.208C1352.22 49.8347 1352.61 49.5467 1353.08 49.344C1353.56 49.1413 1354.09 49.04 1354.65 49.04ZM1368.56 53.376C1368.56 53.7067 1368.54 54.0053 1368.5 54.272H1361.76C1361.81 54.976 1362.08 55.5413 1362.55 55.968C1363.01 56.3947 1363.59 56.608 1364.27 56.608C1365.25 56.608 1365.95 56.1973 1366.35 55.376H1368.32C1368.05 56.1867 1367.57 56.8533 1366.87 57.376C1366.17 57.888 1365.31 58.144 1364.27 58.144C1363.43 58.144 1362.67 57.9573 1362 57.584C1361.34 57.2 1360.82 56.6667 1360.43 55.984C1360.06 55.2907 1359.87 54.4907 1359.87 53.584C1359.87 52.6773 1360.05 51.8827 1360.42 51.2C1360.79 50.5067 1361.31 49.9733 1361.97 49.6C1362.64 49.2267 1363.41 49.04 1364.27 49.04C1365.11 49.04 1365.85 49.2213 1366.5 49.584C1367.15 49.9467 1367.65 50.4587 1368.02 51.12C1368.38 51.7707 1368.56 52.5227 1368.56 53.376ZM1366.66 52.8C1366.65 52.128 1366.41 51.5893 1365.94 51.184C1365.47 50.7787 1364.89 50.576 1364.19 50.576C1363.56 50.576 1363.03 50.7787 1362.58 51.184C1362.13 51.5787 1361.86 52.1173 1361.78 52.8H1366.66ZM1374.8 49.04C1375.5 49.04 1376.12 49.184 1376.66 49.472C1377.21 49.76 1377.65 50.1867 1377.96 50.752C1378.27 51.3173 1378.42 52 1378.42 52.8V58H1376.61V53.072C1376.61 52.2827 1376.41 51.68 1376.02 51.264C1375.63 50.8373 1375.09 50.624 1374.4 50.624C1373.72 50.624 1373.18 50.8373 1372.77 51.264C1372.38 51.68 1372.18 52.2827 1372.18 53.072V58H1370.36V49.184H1372.18V50.192C1372.48 49.8293 1372.86 49.5467 1373.32 49.344C1373.79 49.1413 1374.28 49.04 1374.8 49.04ZM1390.86 52.288C1391.45 52.3947 1391.96 52.7093 1392.38 53.232C1392.79 53.7547 1393 54.3467 1393 55.008C1393 55.5733 1392.85 56.0853 1392.55 56.544C1392.26 56.992 1391.84 57.3493 1391.29 57.616C1390.73 57.872 1390.09 58 1389.35 58H1384.9V46.88H1389.14C1389.9 46.88 1390.55 47.008 1391.1 47.264C1391.64 47.52 1392.05 47.8667 1392.33 48.304C1392.6 48.7307 1392.74 49.2107 1392.74 49.744C1392.74 50.384 1392.57 50.9173 1392.23 51.344C1391.89 51.7707 1391.43 52.0853 1390.86 52.288ZM1386.73 51.552H1388.98C1389.58 51.552 1390.04 51.4187 1390.38 51.152C1390.72 50.8747 1390.89 50.48 1390.89 49.968C1390.89 49.4667 1390.72 49.0773 1390.38 48.8C1390.04 48.512 1389.58 48.368 1388.98 48.368H1386.73V51.552ZM1389.19 56.512C1389.81 56.512 1390.3 56.3627 1390.65 56.064C1391 55.7653 1391.18 55.3493 1391.18 54.816C1391.18 54.272 1390.99 53.84 1390.62 53.52C1390.24 53.2 1389.75 53.04 1389.13 53.04H1386.73V56.512H1389.19ZM1398.81 58.144C1397.97 58.144 1397.22 57.9573 1396.55 57.584C1395.88 57.2 1395.35 56.6667 1394.97 55.984C1394.58 55.2907 1394.39 54.4907 1394.39 53.584C1394.39 52.688 1394.59 51.8933 1394.98 51.2C1395.38 50.5067 1395.91 49.9733 1396.6 49.6C1397.28 49.2267 1398.04 49.04 1398.89 49.04C1399.73 49.04 1400.49 49.2267 1401.17 49.6C1401.86 49.9733 1402.39 50.5067 1402.79 51.2C1403.18 51.8933 1403.38 52.688 1403.38 53.584C1403.38 54.48 1403.18 55.2747 1402.77 55.968C1402.37 56.6613 1401.81 57.2 1401.11 57.584C1400.42 57.9573 1399.65 58.144 1398.81 58.144ZM1398.81 56.56C1399.27 56.56 1399.71 56.448 1400.12 56.224C1400.53 56 1400.87 55.664 1401.13 55.216C1401.38 54.768 1401.51 54.224 1401.51 53.584C1401.51 52.944 1401.39 52.4053 1401.14 51.968C1400.9 51.52 1400.57 51.184 1400.17 50.96C1399.76 50.736 1399.32 50.624 1398.85 50.624C1398.38 50.624 1397.95 50.736 1397.54 50.96C1397.15 51.184 1396.83 51.52 1396.6 51.968C1396.36 52.4053 1396.25 52.944 1396.25 53.584C1396.25 54.5333 1396.49 55.2693 1396.97 55.792C1397.46 56.304 1398.07 56.56 1398.81 56.56ZM1408.96 53.536L1411.81 58H1409.74L1407.84 55.008L1406.05 58H1404.14L1406.99 53.664L1404.14 49.184H1406.21L1408.11 52.176L1409.9 49.184H1411.81L1408.96 53.536Z" fill="black" fill-opacity="0.8"/>
<path d="M1292.65 58L1289.35 53.088V58H1285.8V46.672H1289.35V51.44L1292.6 46.672H1296.62L1292.71 52.096L1296.87 58H1292.65ZM1305.46 52.192C1306.14 52.352 1306.67 52.6827 1307.05 53.184C1307.43 53.6747 1307.62 54.2453 1307.62 54.896C1307.62 55.888 1307.29 56.656 1306.63 57.2C1305.98 57.7333 1305.04 58 1303.81 58H1297.88V46.672H1303.65C1304.81 46.672 1305.71 46.9227 1306.37 47.424C1307.04 47.9253 1307.37 48.656 1307.37 49.616C1307.37 50.2773 1307.19 50.8373 1306.84 51.296C1306.5 51.744 1306.04 52.0427 1305.46 52.192ZM1301.43 51.088H1302.81C1303.13 51.088 1303.36 51.024 1303.51 50.896C1303.67 50.768 1303.75 50.5707 1303.75 50.304C1303.75 50.0267 1303.67 49.824 1303.51 49.696C1303.36 49.5573 1303.13 49.488 1302.81 49.488H1301.43V51.088ZM1303.05 55.152C1303.37 55.152 1303.6 55.0933 1303.75 54.976C1303.91 54.848 1303.99 54.6453 1303.99 54.368C1303.99 53.824 1303.68 53.552 1303.05 53.552H1301.43V55.152H1303.05Z" fill="black" fill-opacity="0.8"/>
<path d="M1158 51.99L1155.56 49.2L1155.9 45.51L1152.29 44.69L1150.4 41.5L1147 42.96L1143.6 41.5L1141.71 44.69L1138.1 45.5L1138.44 49.2L1136 51.99L1138.44 54.78L1138.1 58.48L1141.71 59.3L1143.6 62.5L1147 61.03L1150.4 62.49L1152.29 59.3L1155.9 58.48L1155.56 54.79L1158 51.99ZM1154.05 53.47L1153.49 54.12L1153.57 54.97L1153.75 56.92L1151.85 57.35L1151.01 57.54L1150.57 58.28L1149.58 59.96L1147.8 59.19L1147 58.85L1146.21 59.19L1144.43 59.96L1143.44 58.29L1143 57.55L1142.16 57.36L1140.26 56.93L1140.44 54.97L1140.52 54.12L1139.96 53.47L1138.67 52L1139.96 50.52L1140.52 49.87L1140.43 49.01L1140.25 47.07L1142.15 46.64L1142.99 46.45L1143.43 45.71L1144.42 44.03L1146.2 44.8L1147 45.14L1147.79 44.8L1149.57 44.03L1150.56 45.71L1151 46.45L1151.84 46.64L1153.74 47.07L1153.56 49.02L1153.48 49.87L1154.04 50.52L1155.33 51.99L1154.05 53.47Z" fill="black" fill-opacity="0.8"/>
<path d="M1142.44 49.4C1142.44 50.66 1143.26 51.356 1144.35 51.356C1145.44 51.356 1146.26 50.66 1146.26 49.4C1146.26 48.152 1145.44 47.456 1144.35 47.456C1143.26 47.456 1142.44 48.152 1142.44 49.4ZM1144.34 48.464C1144.76 48.464 1145.02 48.74 1145.02 49.4C1145.02 50.06 1144.76 50.348 1144.34 50.348C1143.93 50.348 1143.68 50.06 1143.68 49.4C1143.68 48.74 1143.93 48.464 1144.34 48.464ZM1143.8 56H1145.43L1150.15 47.6H1148.5L1143.8 56ZM1147.71 54.188C1147.71 55.46 1148.53 56.144 1149.62 56.144C1150.7 56.144 1151.5 55.46 1151.5 54.188C1151.5 52.928 1150.7 52.244 1149.62 52.244C1148.53 52.244 1147.71 52.928 1147.71 54.188ZM1149.61 53.252C1150.02 53.252 1150.28 53.528 1150.28 54.188C1150.28 54.86 1150.02 55.136 1149.61 55.136C1149.19 55.136 1148.92 54.86 1148.92 54.188C1148.92 53.528 1149.19 53.252 1149.61 53.252Z" fill="black" fill-opacity="0.8"/>
<path d="M1175.27 58.112C1174.24 58.112 1173.28 57.872 1172.41 57.392C1171.54 56.9013 1170.86 56.224 1170.34 55.36C1169.84 54.4853 1169.59 53.504 1169.59 52.416C1169.59 51.328 1169.84 50.352 1170.34 49.488C1170.86 48.624 1171.54 47.952 1172.41 47.472C1173.28 46.9813 1174.24 46.736 1175.27 46.736C1176.32 46.736 1177.27 46.9813 1178.14 47.472C1179.01 47.952 1179.7 48.624 1180.2 49.488C1180.7 50.352 1180.95 51.328 1180.95 52.416C1180.95 53.504 1180.7 54.4853 1180.2 55.36C1179.7 56.224 1179.01 56.9013 1178.14 57.392C1177.27 57.872 1176.32 58.112 1175.27 58.112ZM1175.27 56.528C1176.01 56.528 1176.66 56.3627 1177.24 56.032C1177.82 55.6907 1178.26 55.2107 1178.58 54.592C1178.91 53.9627 1179.08 53.2373 1179.08 52.416C1179.08 51.5947 1178.91 50.8747 1178.58 50.256C1178.26 49.6373 1177.82 49.1627 1177.24 48.832C1176.66 48.5013 1176.01 48.336 1175.27 48.336C1174.54 48.336 1173.88 48.5013 1173.3 48.832C1172.73 49.1627 1172.27 49.6373 1171.94 50.256C1171.62 50.8747 1171.46 51.5947 1171.46 52.416C1171.46 53.2373 1171.62 53.9627 1171.94 54.592C1172.27 55.2107 1172.73 55.6907 1173.3 56.032C1173.88 56.3627 1174.54 56.528 1175.27 56.528ZM1186.44 50.672H1184.81V58H1182.97V50.672H1181.93V49.184H1182.97V48.56C1182.97 47.5467 1183.24 46.8107 1183.77 46.352C1184.31 45.8827 1185.16 45.648 1186.31 45.648V47.168C1185.76 47.168 1185.37 47.2747 1185.15 47.488C1184.92 47.6907 1184.81 48.048 1184.81 48.56V49.184H1186.44V50.672ZM1191.76 50.672H1190.12V58H1188.28V50.672H1187.24V49.184H1188.28V48.56C1188.28 47.5467 1188.55 46.8107 1189.08 46.352C1189.63 45.8827 1190.48 45.648 1191.63 45.648V47.168C1191.07 47.168 1190.68 47.2747 1190.46 47.488C1190.24 47.6907 1190.12 48.048 1190.12 48.56V49.184H1191.76V50.672ZM1201.45 53.376C1201.45 53.7067 1201.43 54.0053 1201.39 54.272H1194.65C1194.71 54.976 1194.97 55.5413 1195.44 55.968C1195.91 56.3947 1196.48 56.608 1197.16 56.608C1198.15 56.608 1198.84 56.1973 1199.24 55.376H1201.21C1200.95 56.1867 1200.46 56.8533 1199.76 57.376C1199.06 57.888 1198.2 58.144 1197.16 58.144C1196.32 58.144 1195.56 57.9573 1194.89 57.584C1194.23 57.2 1193.71 56.6667 1193.32 55.984C1192.95 55.2907 1192.76 54.4907 1192.76 53.584C1192.76 52.6773 1192.95 51.8827 1193.31 51.2C1193.68 50.5067 1194.2 49.9733 1194.86 49.6C1195.53 49.2267 1196.3 49.04 1197.16 49.04C1198 49.04 1198.74 49.2213 1199.39 49.584C1200.04 49.9467 1200.55 50.4587 1200.91 51.12C1201.27 51.7707 1201.45 52.5227 1201.45 53.376ZM1199.55 52.8C1199.54 52.128 1199.3 51.5893 1198.83 51.184C1198.36 50.7787 1197.78 50.576 1197.08 50.576C1196.45 50.576 1195.92 50.7787 1195.47 51.184C1195.02 51.5787 1194.75 52.1173 1194.67 52.8H1199.55ZM1205.07 50.464C1205.34 50.016 1205.69 49.6693 1206.13 49.424C1206.57 49.168 1207.1 49.04 1207.71 49.04V50.928H1207.25C1206.53 50.928 1205.99 51.1093 1205.61 51.472C1205.25 51.8347 1205.07 52.464 1205.07 53.36V58H1203.25V49.184H1205.07V50.464ZM1212.59 58.144C1211.89 58.144 1211.27 58.0213 1210.72 57.776C1210.17 57.52 1209.74 57.1787 1209.42 56.752C1209.1 56.3147 1208.93 55.8293 1208.91 55.296H1210.8C1210.83 55.6693 1211 55.984 1211.32 56.24C1211.65 56.4853 1212.06 56.608 1212.56 56.608C1213.07 56.608 1213.46 56.512 1213.74 56.32C1214.03 56.1173 1214.17 55.8613 1214.17 55.552C1214.17 55.2213 1214.01 54.976 1213.69 54.816C1213.38 54.656 1212.89 54.48 1212.2 54.288C1211.54 54.1067 1211 53.9307 1210.59 53.76C1210.17 53.5893 1209.81 53.328 1209.5 52.976C1209.2 52.624 1209.05 52.16 1209.05 51.584C1209.05 51.1147 1209.19 50.688 1209.47 50.304C1209.74 49.9093 1210.14 49.6 1210.65 49.376C1211.17 49.152 1211.77 49.04 1212.44 49.04C1213.45 49.04 1214.25 49.296 1214.86 49.808C1215.48 50.3093 1215.81 50.9973 1215.85 51.872H1214.03C1214 51.4773 1213.84 51.1627 1213.55 50.928C1213.26 50.6933 1212.87 50.576 1212.38 50.576C1211.9 50.576 1211.53 50.6667 1211.28 50.848C1211.02 51.0293 1210.89 51.2693 1210.89 51.568C1210.89 51.8027 1210.98 52 1211.15 52.16C1211.32 52.32 1211.53 52.448 1211.77 52.544C1212.02 52.6293 1212.38 52.7413 1212.86 52.88C1213.5 53.0507 1214.02 53.2267 1214.43 53.408C1214.84 53.5787 1215.2 53.8347 1215.5 54.176C1215.8 54.5173 1215.95 54.9707 1215.96 55.536C1215.96 56.0373 1215.82 56.4853 1215.55 56.88C1215.27 57.2747 1214.88 57.584 1214.36 57.808C1213.86 58.032 1213.27 58.144 1212.59 58.144Z" fill="black" fill-opacity="0.8"/>
<path d="M1684.59 52.416C1684.59 51.328 1684.84 50.352 1685.34 49.488C1685.86 48.624 1686.54 47.952 1687.41 47.472C1688.28 46.9813 1689.24 46.736 1690.27 46.736C1691.46 46.736 1692.51 47.0293 1693.42 47.616C1694.35 48.192 1695.02 49.0133 1695.44 50.08H1693.25C1692.96 49.4933 1692.56 49.056 1692.05 48.768C1691.54 48.48 1690.94 48.336 1690.27 48.336C1689.54 48.336 1688.88 48.5013 1688.3 48.832C1687.73 49.1627 1687.27 49.6373 1686.94 50.256C1686.62 50.8747 1686.46 51.5947 1686.46 52.416C1686.46 53.2373 1686.62 53.9573 1686.94 54.576C1687.27 55.1947 1687.73 55.6747 1688.3 56.016C1688.88 56.3467 1689.54 56.512 1690.27 56.512C1690.94 56.512 1691.54 56.368 1692.05 56.08C1692.56 55.792 1692.96 55.3547 1693.25 54.768H1695.44C1695.02 55.8347 1694.35 56.656 1693.42 57.232C1692.51 57.808 1691.46 58.096 1690.27 58.096C1689.23 58.096 1688.27 57.856 1687.41 57.376C1686.54 56.8853 1685.86 56.208 1685.34 55.344C1684.84 54.48 1684.59 53.504 1684.59 52.416ZM1696.97 53.552C1696.97 52.6667 1697.15 51.8827 1697.51 51.2C1697.88 50.5173 1698.39 49.9893 1699.02 49.616C1699.66 49.232 1700.36 49.04 1701.13 49.04C1701.82 49.04 1702.42 49.1787 1702.94 49.456C1703.46 49.7227 1703.87 50.0587 1704.18 50.464V49.184H1706.02V58H1704.18V56.688C1703.87 57.104 1703.45 57.4507 1702.92 57.728C1702.39 58.0053 1701.78 58.144 1701.1 58.144C1700.34 58.144 1699.64 57.952 1699.02 57.568C1698.39 57.1733 1697.88 56.6293 1697.51 55.936C1697.15 55.232 1696.97 54.4373 1696.97 53.552ZM1704.18 53.584C1704.18 52.976 1704.06 52.448 1703.8 52C1703.55 51.552 1703.23 51.2107 1702.82 50.976C1702.42 50.7413 1701.98 50.624 1701.51 50.624C1701.04 50.624 1700.6 50.7413 1700.2 50.976C1699.79 51.2 1699.46 51.536 1699.21 51.984C1698.96 52.4213 1698.84 52.944 1698.84 53.552C1698.84 54.16 1698.96 54.6933 1699.21 55.152C1699.46 55.6107 1699.79 55.9627 1700.2 56.208C1700.62 56.4427 1701.05 56.56 1701.51 56.56C1701.98 56.56 1702.42 56.4427 1702.82 56.208C1703.23 55.9733 1703.55 55.632 1703.8 55.184C1704.06 54.7253 1704.18 54.192 1704.18 53.584ZM1710.24 50.464C1710.51 50.016 1710.86 49.6693 1711.3 49.424C1711.75 49.168 1712.27 49.04 1712.88 49.04V50.928H1712.42C1711.7 50.928 1711.16 51.1093 1710.79 51.472C1710.42 51.8347 1710.24 52.464 1710.24 53.36V58H1708.42V49.184H1710.24V50.464ZM1716.69 50.672V55.552C1716.69 55.8827 1716.76 56.1227 1716.91 56.272C1717.07 56.4107 1717.34 56.48 1717.71 56.48H1718.83V58H1717.39C1716.57 58 1715.94 57.808 1715.5 57.424C1715.07 57.04 1714.85 56.416 1714.85 55.552V50.672H1713.81V49.184H1714.85V46.992H1716.69V49.184H1718.83V50.672H1716.69Z" fill="black" fill-opacity="0.8"/>
<path d="M1668 46H1666C1666 43.79 1664.21 42 1662 42C1659.79 42 1658 43.79 1658 46H1656C1654.9 46 1654 46.9 1654 48V60C1654 61.1 1654.9 62 1656 62H1668C1669.1 62 1670 61.1 1670 60V48C1670 46.9 1669.1 46 1668 46ZM1662 44C1663.1 44 1664 44.9 1664 46H1660C1660 44.9 1660.9 44 1662 44ZM1668 60H1656V48H1658V50C1658 50.55 1658.45 51 1659 51C1659.55 51 1660 50.55 1660 50V48H1664V50C1664 50.55 1664.45 51 1665 51C1665.55 51 1666 50.55 1666 50V48H1668V60Z" fill="black" fill-opacity="0.8"/>
<defs>
<filter id="filter0_d_251_1012" x="-16" y="0" width="1952" height="132" filterUnits="userSpaceOnUse" color-interpolation-filters="sRGB">
<feFlood flood-opacity="0" result="BackgroundImageFix"/>
<feColorMatrix in="SourceAlpha" type="matrix" values="0 0 0 0 0 0 0 0 0 0 0 0 0 0 0 0 0 0 127 0" result="hardAlpha"/>
<feMorphology radius="24" operator="erode" in="SourceAlpha" result="effect1_dropShadow_251_1012"/>
<feOffset dy="16"/>
<feGaussianBlur stdDeviation="20"/>
<feComposite in2="hardAlpha" operator="out"/>
<feColorMatrix type="matrix" values="0 0 0 0 0.156863 0 0 0 0 0.172549 0 0 0 0 0.247059 0 0 0 0.15 0"/>
<feBlend mode="normal" in2="BackgroundImageFix" result="effect1_dropShadow_251_1012"/>
<feBlend mode="normal" in="SourceGraphic" in2="effect1_dropShadow_251_1012" result="shape"/>
</filter>
</defs>
</svg>
